#!OML:ASF H:\BreakDance\Project 1\Capture day 1\Session 1\Male.ASF
:FULLY-SPECIFIED
:DEGREES
1
root 13.4004 15.9609 1.30022 -93.4957 -89.152 91.812
lowerback -9.99165 0.304755 0.0486278
upperback 3.23432 0.528884 -1.63556
thorax 9.08506 0.307098 -1.67792
lowerneck 2.21635 -1.08343 -2.05043
upperneck 16.3783 -2.60444 4.94303
head 4.62329 -1.34855 1.76631
rclavicle -8.69683e-016 3.57812e-015
rhumerus -25.8312 16.1615 -92.7844
rradius 49.7424
rwrist 14.5644
rhand -33.0176 -31.321
rfingers 7.12502
rthumb -6.2312 -61.2093
lclavicle -8.69683e-016 3.57812e-015
lhumerus -25.8033 -17.8323 88.4211
lradius 48.027
lwrist -17.361
lhand -29.3567 -28.0254
lfingers 7.12502
lthumb -2.69624 1.93732
rfemur -13.3401 3.58498 12.4651
rtibia 44.6307
rfoot -25.872 -18.5402
rtoes -3.84425
lfemur -14.0805 4.5131 -11.7343
ltibia 41.7046
lfoot -29.6618 16.7631
ltoes -34.0714
2
root 13.401 15.9605 1.29917 -96.3493 -89.2573 94.6604
lowerback -9.97015 0.315975 0.102095
upperback 3.27984 0.532188 -1.5735
thorax 9.12196 0.310231 -1.64154
lowerneck 2.60901 -1.08388 -1.99176
upperneck 15.0718 -2.47781 4.66189
head 4.63874 -1.31669 1.84843
rclavicle 2.17421e-015 -3.57812e-015
rhumerus -25.7821 16.2654 -92.7309
rradius 49.8342
rwrist 14.4774
rhand -33.2977 -31.2024
rfingers 7.12502
rthumb -6.50163 -61.0826
lclavicle 2.17421e-015 -3.57812e-015
lhumerus -25.8415 -17.7235 88.4613
lradius 48.2038
lwrist -17.324
lhand -29.4718 -28.1273
lfingers 7.12502
lthumb -2.80737 1.83393
rfemur -13.312 3.71884 12.6321
rtibia 44.645
rfoot -26.0848 -18.5565
rtoes -2.73149
lfemur -14.0657 4.61457 -11.5862
ltibia 41.7247
lfoot -29.9022 16.524
ltoes -33.832
3
root 13.4019 15.9617 1.29877 -94.3397 -89.2688 92.6938
lowerback -10.0055 0.288774 0.0612112
upperback 3.30749 0.499128 -1.53951
thorax 9.17099 0.291101 -1.58827
lowerneck 2.90855 -1.06477 -1.96355
upperneck 14.2092 -2.37989 4.63233
head 4.25725 -1.26457 1.82858
rclavicle 2.71465e-015 -1.23246e-014
rhumerus -25.7303 16.3231 -92.6943
rradius 49.8656
rwrist 14.4998
rhand -33.4195 -31.3942
rfingers 7.12502
rthumb -6.61918 -61.2707
lclavicle 2.71465e-015 -1.23246e-014
lhumerus -25.7944 -17.6459 88.4724
lradius 48.2356
lwrist -17.3292
lhand -29.6607 -28.2363
lfingers 7.12502
lthumb -2.98977 1.72249
rfemur -13.3513 3.73066 12.6444
rtibia 44.6446
rfoot -26.1629 -18.5006
rtoes -2.26904
lfemur -14.132 4.62889 -11.5806
ltibia 41.7258
lfoot -29.7942 16.4846
ltoes -33.8113
4
root 13.4015 15.9624 1.29808 -95.2515 -89.2927 93.6303
lowerback -9.99525 0.287068 0.0878829
upperback 3.31248 0.49235 -1.52859
thorax 9.17034 0.289062 -1.59288
lowerneck 3.16515 -1.02117 -1.90855
upperneck 13.5664 -2.27671 4.66145
head 3.97061 -1.20879 1.82594
rclavicle 2.38542e-015 -2.18663e-014
rhumerus -25.7417 16.2454 -92.6931
rradius 49.8836
rwrist 14.4845
rhand -33.4009 -31.2815
rfingers 7.12502
rthumb -6.60125 -61.1586
lclavicle 2.38542e-015 -2.18663e-014
lhumerus -25.7317 -17.58 88.4404
lradius 48.2089
lwrist -17.0827
lhand -29.3324 -28.3391
lfingers 7.12502
lthumb -2.67272 1.62387
rfemur -13.3859 3.74826 12.673
rtibia 44.6488
rfoot -26.1205 -18.5178
rtoes -2.5342
lfemur -14.1614 4.61771 -11.5545
ltibia 41.7286
lfoot -29.7683 16.5581
ltoes -33.7683
5
root 13.4016 15.9629 1.29763 -95.3502 -89.3428 93.7503
lowerback -9.97022 0.293461 0.144427
upperback 3.31037 0.492311 -1.5183
thorax 9.15378 0.29197 -1.61374
lowerneck 3.35861 -0.995696 -1.85945
upperneck 13 -2.1989 4.65663
head 3.72737 -1.16677 1.81255
rclavicle -9.93923e-017 0
rhumerus -25.762 16.1976 -92.6992
rradius 49.9127
rwrist 14.4628
rhand -33.4302 -31.3189
rfingers 7.12502
rthumb -6.6295 -61.1952
lclavicle -9.93923e-017 0
lhumerus -25.7076 -17.5434 88.4227
lradius 48.2186
lwrist -16.898
lhand -29.1089 -28.4347
lfingers 7.12502
lthumb -2.45688 1.53086
rfemur -13.4041 3.76166 12.7346
rtibia 44.6444
rfoot -26.1381 -18.5158
rtoes -2.41503
lfemur -14.1926 4.62206 -11.4982
ltibia 41.7354
lfoot -29.7595 16.5554
ltoes -33.7786
6
root 13.4015 15.9633 1.29733 -94.6915 -89.3931 93.1121
lowerback -9.92718 0.304891 0.22218
upperback 3.28951 0.497216 -1.52395
thorax 9.1068 0.298786 -1.66258
lowerneck 3.47082 -0.965974 -1.80404
upperneck 12.6051 -2.129 4.66065
head 3.56294 -1.12832 1.80217
rclavicle 8.26199e-016 1.19271e-015
rhumerus -25.8119 16.1249 -92.7313
rradius 49.9289
rwrist 14.4447
rhand -33.4002 -31.4132
rfingers 7.12502
rthumb -6.60055 -61.2903
lclavicle 8.26199e-016 1.19271e-015
lhumerus -25.7013 -17.537 88.3949
lradius 48.2053
lwrist -16.7062
lhand -28.8323 -28.5175
lfingers 7.12502
lthumb -2.18973 1.45098
rfemur -13.4236 3.74919 12.7908
rtibia 44.6421
rfoot -26.1405 -18.5116
rtoes -2.38143
lfemur -14.2253 4.61503 -11.4445
ltibia 41.7428
lfoot -29.7402 16.5763
ltoes -33.8551
